<?xml version="1.0" encoding="UTF-8"?>
<svg width="24px" height="24px" viewBox="0 0 24 24" version="1.1" xmlns="http://www.w3.org/2000/svg" xmlns:xlink="http://www.w3.org/1999/xlink">
    <title>purchases</title>
    <g stroke="none" stroke-width="1" fill="none" fill-rule="evenodd">
        <path d="M18,6 L16,6 C16,3.79 14.21,2 12,2 C9.79,2 8,3.79 8,6 L6,6 C4.9,6 4,6.9 4,8 L4,20 C4,21.1 4.9,22 6,22 L18,22 C19.1,22 20,21.1 20,20 L20,8 C20,6.9 19.1,6 18,6 Z M12,4 C13.1,4 14,4.9 14,6 L10,6 C10,4.9 10.9,4 12,4 Z M18,20 L6,20 L6,8 L8,8 L8,10 C8,10.55 8.45,11 9,11 C9.55,11 10,10.55 10,10 L10,8 L14,8 L14,10 C14,10.55 14.45,11 15,11 C15.55,11 16,10.55 16,10 L16,8 L18,8 L18,20 Z" fill="#333333"></path>
    </g>
</svg>
